<svg width="203" height="18" viewBox="0 0 203 18" fill="none" xmlns="http://www.w3.org/2000/svg">
<path d="M109.626 9L101.66 17.2783L93.6934 9L101.66 0.720703L109.626 9Z" stroke="#2294FF" stroke-opacity="0.66"/>
<g filter="url(#filter0_d_80_29)">
<path d="M5 7.99999C4.44772 7.99999 4 8.44771 4 8.99999C4 9.55228 4.44772 9.99999 5 9.99999L5 7.99999ZM94 9L94 8L5 7.99999L5 8.99999L5 9.99999L94 10L94 9Z" fill="url(#paint0_linear_80_29)"/>
</g>
<g filter="url(#filter1_d_80_29)">
<path d="M198 7.99999C198.552 7.99999 199 8.44771 199 8.99999C199 9.55228 198.552 9.99999 198 9.99999L198 7.99999ZM109 9L109 8L198 7.99999L198 8.99999L198 9.99999L109 10L109 9Z" fill="url(#paint1_linear_80_29)"/>
</g>
<defs>
<filter id="filter0_d_80_29" x="0" y="8" width="98" height="10" filterUnits="userSpaceOnUse" color-interpolation-filters="sRGB">
<feFlood flood-opacity="0" result="BackgroundImageFix"/>
<feColorMatrix in="SourceAlpha" type="matrix" values="0 0 0 0 0 0 0 0 0 0 0 0 0 0 0 0 0 0 127 0" result="hardAlpha"/>
<feOffset dy="4"/>
<feGaussianBlur stdDeviation="2"/>
<feComposite in2="hardAlpha" operator="out"/>
<feColorMatrix type="matrix" values="0 0 0 0 0 0 0 0 0 0 0 0 0 0 0 0 0 0 0.25 0"/>
<feBlend mode="normal" in2="BackgroundImageFix" result="effect1_dropShadow_80_29"/>
<feBlend mode="normal" in="SourceGraphic" in2="effect1_dropShadow_80_29" result="shape"/>
</filter>
<filter id="filter1_d_80_29" x="105" y="8" width="98" height="10" filterUnits="userSpaceOnUse" color-interpolation-filters="sRGB">
<feFlood flood-opacity="0" result="BackgroundImageFix"/>
<feColorMatrix in="SourceAlpha" type="matrix" values="0 0 0 0 0 0 0 0 0 0 0 0 0 0 0 0 0 0 127 0" result="hardAlpha"/>
<feOffset dy="4"/>
<feGaussianBlur stdDeviation="2"/>
<feComposite in2="hardAlpha" operator="out"/>
<feColorMatrix type="matrix" values="0 0 0 0 0 0 0 0 0 0 0 0 0 0 0 0 0 0 0.25 0"/>
<feBlend mode="normal" in2="BackgroundImageFix" result="effect1_dropShadow_80_29"/>
<feBlend mode="normal" in="SourceGraphic" in2="effect1_dropShadow_80_29" result="shape"/>
</filter>
<linearGradient id="paint0_linear_80_29" x1="94" y1="8.5" x2="5" y2="8.49999" gradientUnits="userSpaceOnUse">
<stop offset="0.509615" stop-color="#4999E5"/>
<stop offset="1" stop-color="#6A9799" stop-opacity="0"/>
</linearGradient>
<linearGradient id="paint1_linear_80_29" x1="109" y1="8.5" x2="198" y2="8.49999" gradientUnits="userSpaceOnUse">
<stop offset="0.509615" stop-color="#4999E5"/>
<stop offset="1" stop-color="#6A9799" stop-opacity="0"/>
</linearGradient>
</defs>
</svg>
