<svg width="108" height="107" viewBox="0 0 108 107" fill="none" xmlns="http://www.w3.org/2000/svg">
<g clip-path="url(#clip0_80_16)">
<g filter="url(#filter0_d_80_16)">
<path d="M73.6875 83.125C72.9416 83.125 72.2262 83.4213 71.6988 83.9488C71.1713 84.4762 70.875 85.1916 70.875 85.9375V94.375H14.625V26.875H25.875V29.6875C25.875 30.4334 26.1713 31.1488 26.6988 31.6762C27.2262 32.2037 27.9416 32.5 28.6875 32.5H56.8125C57.5584 32.5 58.2738 32.2037 58.8012 31.6762C59.3287 31.1488 59.625 30.4334 59.625 29.6875V26.875H70.875V29.6875C70.875 30.4334 71.1713 31.1488 71.6988 31.6762C72.2262 32.2037 72.9416 32.5 73.6875 32.5C74.4334 32.5 75.1488 32.2037 75.6762 31.6762C76.2037 31.1488 76.5 30.4334 76.5 29.6875V24.0625C76.5 23.3166 76.2037 22.6012 75.6762 22.0738C75.1488 21.5463 74.4334 21.25 73.6875 21.25H59.625V18.4375C59.625 16.1997 58.7361 14.0536 57.1537 12.4713C55.5714 10.889 53.4253 10 51.1875 10H34.3125C32.0747 10 29.9286 10.889 28.3463 12.4713C26.7639 14.0536 25.875 16.1997 25.875 18.4375V21.25H11.8125C11.0666 21.25 10.3512 21.5463 9.82376 22.0738C9.29631 22.6012 9 23.3166 9 24.0625V97.1875C9 97.9334 9.29631 98.6488 9.82376 99.1762C10.3512 99.7037 11.0666 100 11.8125 100H73.6875C74.4334 100 75.1488 99.7037 75.6762 99.1762C76.2037 98.6488 76.5 97.9334 76.5 97.1875V85.9375C76.5 85.1916 76.2037 84.4762 75.6762 83.9488C75.1488 83.4213 74.4334 83.125 73.6875 83.125ZM31.5 18.4375C31.5 17.6916 31.7963 16.9762 32.3238 16.4488C32.8512 15.9213 33.5666 15.625 34.3125 15.625H51.1875C51.9334 15.625 52.6488 15.9213 53.1762 16.4488C53.7037 16.9762 54 17.6916 54 18.4375V26.875H31.5V18.4375ZM98.1787 44.5713L86.9287 33.3212C86.6675 33.0593 86.3571 32.8515 86.0154 32.7097C85.6738 32.568 85.3074 32.495 84.9375 32.495C84.5676 32.495 84.2012 32.568 83.8596 32.7097C83.5179 32.8515 83.2075 33.0593 82.9463 33.3212L49.1963 67.0713C48.9352 67.3329 48.7284 67.6435 48.5875 67.9851C48.4465 68.3268 48.3743 68.6929 48.375 69.0625V80.3125C48.375 81.0584 48.6713 81.7738 49.1988 82.3012C49.7262 82.8287 50.4416 83.125 51.1875 83.125H62.4375C62.8071 83.1257 63.1732 83.0535 63.5149 82.9125C63.8565 82.7716 64.1671 82.5648 64.4287 82.3037L98.1787 48.5537C98.4407 48.2925 98.6485 47.9821 98.7903 47.6404C98.932 47.2988 99.005 46.9324 99.005 46.5625C99.005 46.1926 98.932 45.8262 98.7903 45.4846C98.6485 45.1429 98.4407 44.8325 98.1787 44.5713ZM54 77.5V70.2269L84.9375 39.2894L92.2106 46.5625L61.2731 77.5H54ZM42.75 80.3125C42.75 81.0584 42.4537 81.7738 41.9262 82.3012C41.3988 82.8287 40.6834 83.125 39.9375 83.125H28.6875C27.9416 83.125 27.2262 82.8287 26.6988 82.3012C26.1713 81.7738 25.875 81.0584 25.875 80.3125C25.875 79.5666 26.1713 78.8512 26.6988 78.3238C27.2262 77.7963 27.9416 77.5 28.6875 77.5H39.9375C40.6834 77.5 41.3988 77.7963 41.9262 78.3238C42.4537 78.8512 42.75 79.5666 42.75 80.3125ZM42.75 63.4375C42.75 64.1834 42.4537 64.8988 41.9262 65.4262C41.3988 65.9537 40.6834 66.25 39.9375 66.25H28.6875C27.9416 66.25 27.2262 65.9537 26.6988 65.4262C26.1713 64.8988 25.875 64.1834 25.875 63.4375C25.875 62.6916 26.1713 61.9762 26.6988 61.4488C27.2262 60.9213 27.9416 60.625 28.6875 60.625H39.9375C40.6834 60.625 41.3988 60.9213 41.9262 61.4488C42.4537 61.9762 42.75 62.6916 42.75 63.4375ZM56.8125 49.375H28.6875C27.9416 49.375 27.2262 49.0787 26.6988 48.5512C26.1713 48.0238 25.875 47.3084 25.875 46.5625C25.875 45.8166 26.1713 45.1012 26.6988 44.5738C27.2262 44.0463 27.9416 43.75 28.6875 43.75H56.8125C57.5584 43.75 58.2738 44.0463 58.8012 44.5738C59.3287 45.1012 59.625 45.8166 59.625 46.5625C59.625 47.3084 59.3287 48.0238 58.8012 48.5512C58.2738 49.0787 57.5584 49.375 56.8125 49.375Z" fill="#2294FF" fill-opacity="0.66" shape-rendering="crispEdges"/>
</g>
</g>
<defs>
<filter id="filter0_d_80_16" x="-4" y="-3" width="116.005" height="116" filterUnits="userSpaceOnUse" color-interpolation-filters="sRGB">
<feFlood flood-opacity="0" result="BackgroundImageFix"/>
<feColorMatrix in="SourceAlpha" type="matrix" values="0 0 0 0 0 0 0 0 0 0 0 0 0 0 0 0 0 0 127 0" result="hardAlpha"/>
<feOffset/>
<feGaussianBlur stdDeviation="6.5"/>
<feComposite in2="hardAlpha" operator="out"/>
<feColorMatrix type="matrix" values="0 0 0 0 0.17273 0 0 0 0 0.477998 0 0 0 0 0.764423 0 0 0 0.7 0"/>
<feBlend mode="normal" in2="BackgroundImageFix" result="effect1_dropShadow_80_16"/>
<feBlend mode="normal" in="SourceGraphic" in2="effect1_dropShadow_80_16" result="shape"/>
</filter>
<clipPath id="clip0_80_16">
<rect width="108" height="107" fill="white"/>
</clipPath>
</defs>
</svg>
